<svg
  width="66"
  height="55"
  viewBox="0 0 66 55"
  fill="none"
  xmlns="http://www.w3.org/2000/svg"
>
<path
    fill-rule="evenodd"
    clip-rule="evenodd"
    d="M36.8001 17.1999L10.3412 43.6588C10.273 43.7276 10.2237 43.8128 10.198 43.9061C10.1723 43.9995 10.171 44.0979 10.1944 44.1919C10.2178 44.2859 10.2649 44.3723 10.3314 44.4428C10.3978 44.5132 10.4813 44.5654 10.5737 44.5942C15.3764 46.0735 24.7841 44.8121 35.5627 42.7488C42.6692 41.3884 49.3681 38.8989 53.8368 34.4289C59.1232 29.1438 61.2466 22.481 55.9615 17.1906C53.4207 14.6523 49.9762 13.2266 46.3848 13.2266C42.7934 13.2266 39.3489 14.6523 36.8082 17.1906L36.8001 17.1999Z"
    fill="#FE0000"
  />
<path
    fill-rule="evenodd"
    clip-rule="evenodd"
    d="M24.356 29.6306C30.8077 23.1776 45.7917 2.50353 55.7793 6.34007C64.5989 9.72494 58.4612 27.3415 58.4612 27.3415C58.4612 27.3415 34.0923 29.6306 24.356 29.6306Z"
    fill="#FE0000"
  />
<path
    fill-rule="evenodd"
    clip-rule="evenodd"
    d="M32.4877 21.4709L0.378906 53.5811L1.77802 54.3722C2.59152 54.8313 3.53564 55.0037 4.45891 54.862C5.38217 54.7202 6.23105 54.2724 6.86936 53.5905L34.7715 23.7574L32.4877 21.4723V21.4709Z"
    fill="#810604"
  />
<path
    fill-rule="evenodd"
    clip-rule="evenodd"
    d="M59.985 10.2105C58.515 7.71829 53.3676 0.312462 42.6998 0.126715C42.6615 0.126415 42.6238 0.136748 42.5911 0.156565C42.5583 0.176382 42.5316 0.204906 42.5141 0.238965C42.4972 0.273401 42.4901 0.311831 42.4936 0.350026C42.4972 0.388221 42.5112 0.4247 42.5341 0.455447C43.4508 1.77171 46.3987 6.80425 41.7617 11.4399L57.5515 27.9219L61.2304 16.0408L59.985 10.2105Z"
    fill="#FE0000"
  />
<path
    fill-rule="evenodd"
    clip-rule="evenodd"
    d="M59.8439 21.9753C59.8439 21.9753 58.0693 22.2626 57.8822 20.8475C56.8211 12.8043 52.9058 15.6893 51.075 9.35524C50.5204 7.43897 58.9592 8.65101 58.9592 8.65101C58.9592 8.65101 61.2123 11.3811 61.2176 14.635C61.2176 17.9424 59.8439 21.9767 59.8439 21.9767V21.9753Z"
    fill="black"
  />
<path
    fill-rule="evenodd"
    clip-rule="evenodd"
    d="M59.9106 10.1125C62.2064 10.9638 63.385 11.6399 65.5993 13.0417C65.6342 13.0639 65.6635 13.094 65.6848 13.1295C65.7062 13.1649 65.719 13.2049 65.7222 13.2462C65.7247 13.2874 65.7175 13.3287 65.7012 13.3667C65.685 13.4048 65.6602 13.4385 65.6287 13.4653C64.0786 14.7762 62.7022 15.8787 61.1788 16.4306C59.3614 16.0965 57.6242 14.9607 57.4278 13.6871C57.2367 12.4457 58.9578 11.211 59.912 10.1072L59.9106 10.1125Z"
    fill="#B90404"
  />
<path
    fill-rule="evenodd"
    clip-rule="evenodd"
    d="M33.6511 33.422L11.6488 11.4196C11.5915 11.3626 11.5499 11.2916 11.5281 11.2137C11.5063 11.1358 11.505 11.0536 11.5244 10.9751C11.5437 10.8965 11.5831 10.8243 11.6386 10.7655C11.6941 10.7066 11.7639 10.6631 11.8412 10.6392C15.8354 9.4085 25.2951 8.79113 34.2524 10.5056C40.1616 11.6375 45.8609 13.7796 49.5772 17.4958C50.6229 18.5416 51.4525 19.783 52.0184 21.1493C52.5843 22.5156 52.8756 23.98 52.8756 25.4589C52.8756 26.9378 52.5843 28.4022 52.0184 29.7685C51.4525 31.1348 50.6229 32.3762 49.5772 33.422C48.5315 34.4677 47.29 35.2972 45.9237 35.8632C44.5574 36.4291 43.093 36.7204 41.6142 36.7204C40.1353 36.7204 38.6709 36.4291 37.3046 35.8632C35.9383 35.2972 34.6968 34.4677 33.6511 33.422Z"
    fill="#AE0707"
  />
<path
    fill-rule="evenodd"
    clip-rule="evenodd"
    d="M38.1522 21.9957C38.8377 21.3104 39.7111 20.8437 40.6619 20.6546C41.6126 20.4656 42.5981 20.5628 43.4937 20.9338C44.3893 21.3048 45.1547 21.9331 45.6933 22.7391C46.2318 23.5451 46.5192 24.4927 46.5192 25.4621C46.5192 26.4315 46.2318 27.3791 45.6933 28.1852C45.1547 28.9912 44.3893 29.6195 43.4937 29.9905C42.5981 30.3615 41.6126 30.4586 40.6619 30.2696C39.7111 30.0806 38.8377 29.6139 38.1522 28.9285C37.4279 28.2042 35.9299 26.6073 35.2123 25.843C35.1055 25.7284 35.0466 25.5773 35.0479 25.4207C35.0491 25.2641 35.1103 25.1139 35.219 25.0011C35.9419 24.2528 37.4479 22.6973 38.1495 21.9957H38.1522Z"
    fill="#FE0000"
  />
</svg>
