<svg
  width="20"
  height="25"
  viewBox="0 0 20 25"
  fill="none"
  xmlns="http://www.w3.org/2000/svg"
>
<path
    fill-rule="evenodd"
    clip-rule="evenodd"
    d="M18.9337 15.132C17.9165 10.4675 13.7322 6.76288 12.0554 6.32594C12.0254 6.31828 8.26351 6.31531 8.21136 6.32594C5.7128 6.85235 1.7917 11.7679 1.16595 15.0074C-0.229392 22.2327 1.41111 24.3678 10.1334 24.3455C17.314 24.3277 20.4956 22.2933 18.9337 15.132ZM12.0554 5.4098L13.573 0.319249C13.573 0.319249 11.9795 1.52083 10.0323 0.624711C7.67162 -0.461708 6.49178 0.319249 6.49178 0.319249L8.11028 5.4098H12.0554ZM8.19703 5.51137C8.09323 5.51137 8.00896 5.59565 8.00896 5.69945V6.0363C8.00896 6.13985 8.09323 6.22412 8.19703 6.22412H12.0697C12.1737 6.22412 12.2578 6.13985 12.2578 6.0363V5.69945C12.2578 5.59565 12.1737 5.51137 12.0697 5.51137H8.19703Z"
    fill="#AE0707"
  />
</svg>
