<svg width="28" height="36" viewBox="0 0 28 36" fill="none" xmlns="http://www.w3.org/2000/svg">
<path fill-rule="evenodd" clip-rule="evenodd" d="M26.6648 22.0899C25.1751 15.2591 19.0476 9.83402 16.592 9.19416C16.5482 9.18294 11.0391 9.17859 10.9627 9.19416C7.30376 9.96504 1.56161 17.1635 0.645238 21.9075C-1.39814 32.4885 1.00426 35.6151 13.7773 35.5825C24.2928 35.5564 28.9521 32.5772 26.6648 22.0899ZM16.592 7.85253L18.8145 0.397798C18.8145 0.397798 16.4809 2.15743 13.6293 0.845126C10.1723 -0.745855 8.44452 0.397798 8.44452 0.397798L10.8147 7.85253H16.592ZM10.9417 8.00128C10.7897 8.00128 10.6663 8.12469 10.6663 8.2767V8.76999C10.6663 8.92163 10.7897 9.04505 10.9417 9.04505H16.613C16.7653 9.04505 16.8884 8.92163 16.8884 8.76999V8.2767C16.8884 8.12469 16.7653 8.00128 16.613 8.00128H10.9417Z" fill="#AE0707"/>
</svg>
