<svg width="31" height="26" viewBox="0 0 31 26" fill="none" xmlns="http://www.w3.org/2000/svg">
<path d="M4.32495 25.8546C4.46127 25.8546 4.59831 25.8185 4.7227 25.7451C7.49318 24.1024 11.4218 23.1604 15.5005 23.1604C19.5782 23.1604 23.5072 24.1024 26.2791 25.7451C26.606 25.9378 27.0236 25.8687 27.2706 25.5812C29.6751 22.7746 31 19.1942 31 15.5005C31 6.9537 24.047 0 15.5005 0C6.95405 0 0 6.9537 0 15.5005C0 19.1956 1.32486 22.7761 3.73159 25.582C3.88418 25.7606 4.10294 25.8546 4.32495 25.8546ZM7.50765 21.1178L5.72574 22.153C5.60208 22.225 5.46721 22.259 5.33378 22.259C5.06476 22.259 4.80261 22.1198 4.65797 21.8706C4.44102 21.4978 4.56758 21.0191 4.94037 20.8029L6.72228 19.7676C7.09435 19.55 7.57382 19.6772 7.79005 20.05C8.007 20.4228 7.8808 20.9012 7.50765 21.1178ZM26.6219 21.8113C26.478 22.0626 26.2144 22.204 25.9439 22.204C25.8119 22.204 25.6785 22.17 25.5556 22.1002L23.769 21.0748C23.3947 20.86 23.2653 20.3827 23.4801 20.0085C23.6948 19.6342 24.1729 19.5055 24.5464 19.7196L26.333 20.745C26.7072 20.9598 26.8363 21.4371 26.6219 21.8113ZM28.0567 15.5005C28.0567 15.9312 27.707 16.2816 27.2756 16.2816H25.2135C24.7829 16.2816 24.4332 15.9312 24.4332 15.5005C24.4332 15.0699 24.7829 14.7195 25.2135 14.7195H27.2756C27.7074 14.7195 28.0567 15.0699 28.0567 15.5005ZM23.5234 10.0073L25.3061 8.97135C25.6789 8.7544 26.1565 8.88096 26.3738 9.25375C26.5908 9.62655 26.4642 10.1049 26.0914 10.3215L24.3088 11.3578C24.1852 11.4298 24.0496 11.4645 23.9169 11.4645C23.6478 11.4645 23.3857 11.3246 23.2411 11.0754C23.0241 10.7023 23.1507 10.225 23.5234 10.0073ZM19.6942 6.78266L20.7161 4.991C20.9301 4.61675 21.4067 4.4855 21.7817 4.69919C22.1566 4.91398 22.2865 5.39055 22.0735 5.76479L21.0516 7.55646C20.9077 7.80921 20.6434 7.95059 20.3722 7.95059C20.241 7.95059 20.1083 7.91733 19.986 7.84826C19.6118 7.63456 19.4813 7.15691 19.6942 6.78266ZM14.7192 3.72327C14.7192 3.29262 15.0695 2.94224 15.5002 2.94224C15.9308 2.94224 16.2812 3.29262 16.2812 3.72327V5.7854C16.2812 6.21606 15.9308 6.56643 15.5002 6.56643C15.0695 6.56643 14.7192 6.21606 14.7192 5.7854V3.72327ZM13.57 13.8911C14.4682 13.0895 21.0863 9.93101 21.3673 9.79686C21.4816 9.7419 21.6208 9.76865 21.7076 9.8652C21.7922 9.96138 21.8052 10.1017 21.7372 10.2105C21.572 10.4752 17.69 16.696 16.7921 17.4976C16.3485 17.8939 15.7772 18.1119 15.182 18.1119C14.4942 18.1119 13.8365 17.818 13.3784 17.3041C12.4903 16.3105 12.5764 14.7788 13.57 13.8911ZM9.40381 4.73463C9.77733 4.5184 10.2554 4.6464 10.4709 5.01992L11.5021 6.80472C11.7183 7.17896 11.5903 7.65626 11.2168 7.87177C11.0939 7.943 10.959 7.97699 10.8263 7.97699C10.5573 7.97699 10.2944 7.83705 10.1498 7.58647L9.11852 5.80168C8.90265 5.42816 9.03029 4.95086 9.40381 4.73463ZM4.83768 9.3145C5.05319 8.94026 5.53048 8.81153 5.904 9.02559L7.69206 10.0525C8.0663 10.2673 8.19575 10.7449 7.98096 11.1185C7.83633 11.3698 7.57345 11.5111 7.30299 11.5111C7.17101 11.5111 7.03758 11.4772 6.91464 11.4074L5.12659 10.3805C4.75271 10.1657 4.6229 9.68802 4.83768 9.3145ZM2.94188 15.5005C2.94188 15.0699 3.29226 14.7195 3.72291 14.7195H5.7836C6.21497 14.7195 6.56462 15.0699 6.56462 15.5005C6.56462 15.9312 6.21497 16.2816 5.7836 16.2816H3.72291C3.29226 16.2816 2.94188 15.9312 2.94188 15.5005Z" fill="#AE0707"/>
</svg>
