<svg
  width="40"
  height="51"
  viewBox="0 0 40 51"
  fill="none"
  xmlns="http://www.w3.org/2000/svg"
>
<path
    d="M37.325 35.005L34.9653 44.6722L30.333 43.1371L37.325 35.005Z"
    fill="#E4761B"
    stroke="#E4761B"
    stroke-width="0.0919245"
  />
<path
    d="M30.333 43.1371L34.8009 35.7198L37.325 35.005L30.333 43.1371Z"
    fill="#E4761B"
    stroke="#E4761B"
    stroke-width="0.0919245"
  />
<path
    d="M33.8511 27.7164L37.3229 35.0049L34.7988 35.7197L33.8511 27.7164ZM33.8511 27.7164L36.085 25.8416L37.3229 35.0049L33.8511 27.7164Z"
    fill="#F6851B"
    stroke="#F6851B"
    stroke-width="0.0919245"
  />
<path
    d="M31.0098 22.2082L37.431 19.021L37.1119 20.7669L31.0098 22.2082ZM36.9088 22.8644L31.0098 22.2082L37.1119 20.7669L36.9088 22.8644Z"
    fill="#763D16"
    stroke="#763D16"
    stroke-width="0.0919245"
  />
<path
    d="M36.9088 22.8644L36.0868 25.8408L31.0098 22.2082L36.9088 22.8644ZM38.1949 19.7592L37.1118 20.767L37.431 19.021L38.1949 19.7592ZM36.9088 22.8644L37.1118 20.767L37.9725 21.6341L36.9088 22.8644Z"
    fill="#763D16"
    stroke="#763D16"
    stroke-width="0.0919245"
  />
<path
    d="M25.3523 40.7811L26.9576 41.4022L30.3327 43.1364L25.3523 40.7811Z"
    fill="#E2761B"
    stroke="#E2761B"
    stroke-width="0.0919245"
  />
<path
    d="M36.0856 25.8415L36.9076 22.8652L37.6135 23.5214L36.0856 25.8415ZM36.0856 25.8415L29.4226 23.1816L31.0086 22.209L36.0856 25.8415Z"
    fill="#763D16"
    stroke="#763D16"
    stroke-width="0.0919245"
  />
<path
    d="M32.5947 13.0801L31.0086 22.2082L29.4226 23.1807L32.5947 13.0801Z"
    fill="#763D16"
    stroke="#763D16"
    stroke-width="0.0919245"
  />
<path
    d="M37.431 19.021L31.0098 22.2083L32.5957 13.0801L37.431 19.021Z"
    fill="#763D16"
    stroke="#763D16"
    stroke-width="0.0919245"
  />
<path
    d="M32.5947 13.0809L39.2963 12.1434L37.4299 19.0218L32.5947 13.0809Z"
    fill="#763D16"
    stroke="#763D16"
    stroke-width="0.0919245"
  />
<path
    d="M36.0857 25.841L33.8518 27.7159L29.4226 23.181L36.0857 25.841Z"
    fill="#F6851B"
    stroke="#F6851B"
    stroke-width="0.0919245"
  />
<path
    d="M39.0062 5.56934L39.2963 12.143L32.5947 13.0805L39.0062 5.56934Z"
    fill="#763D16"
    stroke="#763D16"
    stroke-width="0.0919245"
  />
<path
    d="M39.0064 5.56934L25.6125 17.3692L25.4385 9.36591L39.0064 5.56934Z"
    fill="#E2761B"
    stroke="#E2761B"
    stroke-width="0.0919245"
  />
<path
    d="M15.478 8.40515L25.4388 9.36601L25.6129 17.3693L15.478 8.40515Z"
    fill="#F6851B"
    stroke="#F6851B"
    stroke-width="0.0919245"
  />
<path
    d="M29.4228 23.1807L25.6125 17.3688L32.5948 13.0801L29.4228 23.1807Z"
    fill="#763D16"
    stroke="#763D16"
    stroke-width="0.0919245"
  />
<path
    d="M29.4234 23.181L33.8526 27.7158L27.6343 28.5478L29.4234 23.181Z"
    fill="#E4761B"
    stroke="#E4761B"
    stroke-width="0.0919245"
  />
<path
    d="M27.6337 28.5481L25.6125 17.3694L29.4228 23.1814L27.6337 28.5481Z"
    fill="#E4761B"
    stroke="#E4761B"
    stroke-width="0.0919245"
  />
<path
    d="M32.5948 13.0805L25.6125 17.3692L39.0065 5.56934L32.5948 13.0805Z"
    fill="#763D16"
    stroke="#763D16"
    stroke-width="0.0919245"
  />
<path
    d="M15.5642 42.949L18.7264 46.9448L14.4231 42.1991L15.5642 42.949Z"
    fill="#C0AD9E"
    stroke="#C0AD9E"
    stroke-width="0.0919245"
  />
<path
    d="M30.333 43.136L31.832 36.2342L34.8009 35.7186L30.333 43.136Z"
    fill="#CD6116"
    stroke="#CD6116"
    stroke-width="0.0919245"
  />
<path
    d="M2.74243 23.7202L8.21604 16.7482L3.44839 22.8883L2.74243 23.7202Z"
    fill="#E2761B"
    stroke="#E2761B"
    stroke-width="0.0919245"
  />
<path
    d="M34.7999 35.7193L31.8311 36.2349L33.8522 27.7161L34.7999 35.7193ZM25.6128 17.3693L20.2843 17.1583L15.478 8.40515L25.6128 17.3693Z"
    fill="#F6851B"
    stroke="#F6851B"
    stroke-width="0.0919245"
  />
<path
    d="M33.853 27.7159L31.8319 36.2348L31.6675 32.075L33.853 27.7159Z"
    fill="#E4751F"
    stroke="#E4751F"
    stroke-width="0.0919245"
  />
<path
    d="M27.6343 28.5479L33.8526 27.7159L31.667 32.0751L27.6343 28.5479Z"
    fill="#CD6116"
    stroke="#CD6116"
    stroke-width="0.0919245"
  />
<path
    d="M20.2842 17.1583L25.6126 17.3692L27.6338 28.5479L20.2842 17.1583Z"
    fill="#F6851B"
    stroke="#F6851B"
    stroke-width="0.0919245"
  />
<path
    d="M20.2857 17.1581L5.90545 1.03442L15.4794 8.40492L20.2857 17.1581ZM15.4697 45.398L2.97525 50.0851L0.480225 38.5431L15.4697 45.398Z"
    fill="#E4761B"
    stroke="#E4761B"
    stroke-width="0.0919245"
  />
<path
    d="M4.59961 26.6019L9.31897 22.114L13.2743 23.2272L4.59961 26.6019Z"
    fill="#763D16"
    stroke="#763D16"
    stroke-width="0.0919245"
  />
<path
    d="M13.273 23.2282L9.31787 22.115L11.4356 11.5221L13.273 23.2282Z"
    fill="#763D16"
    stroke="#763D16"
    stroke-width="0.0919245"
  />
<path
    d="M3.44849 22.8874L9.3186 22.114L4.5993 26.6019L3.44849 22.8874Z"
    fill="#763D16"
    stroke="#763D16"
    stroke-width="0.0919245"
  />
<path
    d="M31.667 32.0752L29.23 30.5871L27.6343 28.5482L31.667 32.0752Z"
    fill="#CD6116"
    stroke="#CD6116"
    stroke-width="0.0919245"
  />
<path
    d="M3.44807 22.889L3.03223 20.229L9.31823 22.1156L3.44807 22.889Z"
    fill="#763D16"
    stroke="#763D16"
    stroke-width="0.0919245"
  />
<path
    d="M28.728 33.9376L29.2309 30.5863L31.668 32.0745L28.728 33.9376Z"
    fill="#233447"
    stroke="#233447"
    stroke-width="0.0919245"
  />
<path
    d="M31.8323 36.2351L28.728 33.9384L31.6679 32.0753L31.8323 36.2351Z"
    fill="#F6851B"
    stroke="#F6851B"
    stroke-width="0.0919245"
  />
<path
    d="M9.31974 22.115L3.03379 20.2285L2.52124 17.9903L9.31974 22.115ZM11.4376 11.5221L9.31974 22.115L2.52124 17.9903L11.4376 11.5221ZM11.4376 11.5221L20.2863 17.1584L13.2751 23.2282L11.4376 11.5221Z"
    fill="#763D16"
    stroke="#763D16"
    stroke-width="0.0919245"
  />
<path
    d="M13.2725 23.2281L20.2837 17.1583L23.4073 28.7237L13.2725 23.2281ZM23.4073 28.7237L13.7173 28.4776L13.2725 23.2281L23.4073 28.7237Z"
    fill="#E4761B"
    stroke="#E4761B"
    stroke-width="0.0919245"
  />
<path
    d="M4.59961 26.6028L13.2741 23.2281L13.719 28.4776L4.59961 26.6028ZM27.635 28.5479L23.4089 28.7237L20.2853 17.1583L27.635 28.5479Z"
    fill="#F6851B"
    stroke="#F6851B"
    stroke-width="0.0919245"
  />
<path
    d="M29.23 30.5871L28.7271 33.9384L27.6343 28.5482L29.23 30.5871Z"
    fill="#CD6116"
    stroke="#CD6116"
    stroke-width="0.0919245"
  />
<path
    d="M5.90454 1.03442L20.2848 17.1581L11.4362 11.5219L5.90454 1.03442Z"
    fill="#763D16"
    stroke="#763D16"
    stroke-width="0.0919245"
  />
<path
    d="M0.47998 38.5438L12.6071 37.9344L15.4696 45.3987L0.47998 38.5438Z"
    fill="#E4761B"
    stroke="#E4761B"
    stroke-width="0.0919245"
  />
<path
    d="M15.4696 45.3983L12.6072 37.9341L18.5641 37.5825L15.4696 45.3983Z"
    fill="#CD6116"
    stroke="#CD6116"
    stroke-width="0.0919245"
  />
<path
    d="M28.728 33.9381L31.8323 36.2348L33.544 41.1211L28.728 33.9381ZM13.7191 28.4776L0.47998 38.5432L4.59969 26.6028L13.7191 28.4776ZM12.607 37.9339L0.47998 38.5432L13.7191 28.4776L12.607 37.9339ZM27.6353 28.5479L28.4282 32.0398L24.5987 32.3093L27.6353 28.5479ZM24.5987 32.3093L23.4092 28.7237L27.6353 28.5479L24.5987 32.3093Z"
    fill="#F6851B"
    stroke="#F6851B"
    stroke-width="0.0919245"
  />
<path
    d="M18.7272 46.9456L15.4683 45.3988L26.802 47.7072L18.7272 46.9456Z"
    fill="#C0AD9E"
    stroke="#C0AD9E"
    stroke-width="0.0919245"
  />
<path
    d="M4.59917 26.6027L2.74243 23.7202L3.44838 22.8882L4.59917 26.6027Z"
    fill="#763D16"
    stroke="#763D16"
    stroke-width="0.0919245"
  />
<path
    d="M28.0884 45.9964L26.8022 47.7072L15.4683 45.3988L28.0884 45.9964Z"
    fill="#D7C1B3"
    stroke="#D7C1B3"
    stroke-width="0.0919245"
  />
<path
    d="M28.6977 41.8009L15.4683 45.3983L18.5629 37.5825L28.6977 41.8009Z"
    fill="#E4761B"
    stroke="#E4761B"
    stroke-width="0.0919245"
  />
<path
    d="M15.4683 45.398L28.6977 41.8007L28.0884 45.9956L15.4683 45.398Z"
    fill="#D7C1B3"
    stroke="#D7C1B3"
    stroke-width="0.0919245"
  />
<path
    d="M2.5199 17.9899L2.08472 8.979L11.4362 11.5217L2.5199 17.9899ZM3.44828 22.8879L2.16208 21.306L3.03244 20.228L3.44828 22.8879Z"
    fill="#763D16"
    stroke="#763D16"
    stroke-width="0.0919245"
  />
<path
    d="M21.2432 31.0437L23.4094 28.7236L23.0999 34.395L21.2432 31.0437Z"
    fill="#CD6116"
    stroke="#CD6116"
    stroke-width="0.0919245"
  />
<path
    d="M23.409 28.7236L21.2427 31.0438L18.0901 33.0241L23.409 28.7236Z"
    fill="#CD6116"
    stroke="#CD6116"
    stroke-width="0.0919245"
  />
<path
    d="M33.5441 41.1209L32.9542 40.5936L28.728 33.9379L33.5441 41.1209Z"
    fill="#F6851B"
    stroke="#F6851B"
    stroke-width="0.0919245"
  />
<path
    d="M18.0896 33.0236L13.7185 28.4771L23.4084 28.7231L18.0896 33.0236Z"
    fill="#CD6116"
    stroke="#CD6116"
    stroke-width="0.0919245"
  />
<path
    d="M23.0981 34.395L23.4076 28.7236L24.5973 32.3093L23.0981 34.395Z"
    fill="#E4751F"
    stroke="#E4751F"
    stroke-width="0.0919245"
  />
<path
    d="M1.73657 18.8813L2.51995 17.9907L3.03252 20.2289L1.73657 18.8813Z"
    fill="#763D16"
    stroke="#763D16"
    stroke-width="0.0919245"
  />
<path
    d="M23.0996 34.3952L18.0901 33.0242L21.2428 31.0439L23.0996 34.3952Z"
    fill="#233447"
    stroke="#233447"
    stroke-width="0.0919245"
  />
<path
    d="M11.4362 11.5219L2.08472 8.97912L5.90462 1.03442L11.4362 11.5219Z"
    fill="#763D16"
    stroke="#763D16"
    stroke-width="0.0919245"
  />
<path
    d="M26.8015 47.7067L27.3333 49.4643L18.7266 46.9451L26.8015 47.7067Z"
    fill="#C0AD9E"
    stroke="#C0AD9E"
    stroke-width="0.0919245"
  />
<path
    d="M18.564 37.582L18.0901 33.0238L23.0996 34.3948L18.564 37.582Z"
    fill="#F6851B"
    stroke="#F6851B"
    stroke-width="0.0919245"
  />
<path
    d="M13.7185 28.4771L18.0895 33.0236L18.5634 37.5818L13.7185 28.4771Z"
    fill="#E4751F"
    stroke="#E4751F"
    stroke-width="0.0919245"
  />
<path
    d="M24.5987 32.3088L28.4282 32.0393L32.9541 40.5933L24.5987 32.3088ZM13.7193 28.4771L18.5642 37.5818L12.6072 37.9333L13.7193 28.4771Z"
    fill="#F6851B"
    stroke="#F6851B"
    stroke-width="0.0919245"
  />
<path
    d="M24.5971 32.3088L29.3551 41.0855L23.0981 34.3946L24.5971 32.3088Z"
    fill="#E4751F"
    stroke="#E4751F"
    stroke-width="0.0919245"
  />
<path
    d="M23.0981 34.3955L29.3551 41.0864L28.6975 41.8012L23.0981 34.3955Z"
    fill="#F6851B"
    stroke="#F6851B"
    stroke-width="0.0919245"
  />
<path
    d="M28.6988 41.8002L18.564 37.5818L23.0995 34.3946L28.6988 41.8002ZM32.954 40.5933L29.3565 41.0854L24.5985 32.3088L32.954 40.5933Z"
    fill="#F6851B"
    stroke="#F6851B"
    stroke-width="0.0919245"
  />
<path
    d="M33.9007 44.7185L32.3534 48.4799L27.3344 49.4642L33.9007 44.7185ZM27.3344 49.4642L26.8025 47.7065L28.0887 45.9957L27.3344 49.4642Z"
    fill="#C0AD9E"
    stroke="#C0AD9E"
    stroke-width="0.0919245"
  />
<path
    d="M28.0888 45.9957L29.0365 45.5387L27.3345 49.4642L28.0888 45.9957ZM27.3345 49.4642L29.0365 45.5387L33.9009 44.7185L27.3345 49.4642Z"
    fill="#C0AD9E"
    stroke="#C0AD9E"
    stroke-width="0.0919245"
  />
<path
    d="M32.9537 40.5938L34.1432 41.4726L30.5264 41.9999L32.9537 40.5938Z"
    fill="#161616"
    stroke="#161616"
    stroke-width="0.0919245"
  />
<path
    d="M30.5246 41.9999L29.3545 41.0859L32.9519 40.5938L30.5246 41.9999ZM30.1088 42.6912L34.5088 42.0468L33.8996 44.7184L30.1088 42.6912Z"
    fill="#161616"
    stroke="#161616"
    stroke-width="0.0919245"
  />
<path
    d="M33.9004 44.7183L29.0361 45.5385L30.1095 42.6911L33.9004 44.7183ZM29.0361 45.5385L28.0884 45.9955L28.6976 41.8006L29.0361 45.5385ZM28.6976 41.8006L29.3552 41.0858L30.5253 41.9998L28.6976 41.8006ZM34.1421 41.4725L34.5096 42.0467L30.1095 42.6911L34.1421 41.4725Z"
    fill="#161616"
    stroke="#161616"
    stroke-width="0.0919245"
  />
<path
    d="M30.1109 42.6911L30.5267 41.9997L34.1435 41.4724L30.1109 42.6911ZM28.699 41.8005L30.1109 42.6911L29.0374 45.5385L28.699 41.8005Z"
    fill="#161616"
    stroke="#161616"
    stroke-width="0.0919245"
  />
<path
    d="M30.5268 41.9999L30.1109 42.6913L28.699 41.8007L30.5268 41.9999Z"
    fill="#161616"
    stroke="#161616"
    stroke-width="0.0919245"
  />
</svg>
