<svg width="33" height="29" viewBox="0 0 33 29" fill="none" xmlns="http://www.w3.org/2000/svg">
<rect width="33" height="29" rx="3.51623" fill="#AE0707"/>
<path d="M10.6946 12.5159C11.124 12.5159 11.5127 12.3436 11.7999 12.0669L13.3754 12.8546C13.3675 12.9188 13.3558 12.9818 13.3558 13.0481C13.3558 13.9285 14.0721 14.6448 14.9526 14.6448C15.833 14.6448 16.5493 13.9285 16.5493 13.0481C16.5493 12.8024 16.4888 12.5723 16.3892 12.3641L18.5265 10.2268C18.7347 10.3265 18.9647 10.3869 19.2105 10.3869C20.0909 10.3869 20.8072 9.67059 20.8072 8.79017C20.8072 8.6244 20.7746 8.46764 20.7275 8.31725L22.5845 6.92483C22.8379 7.09407 23.1416 7.19345 23.4684 7.19345C24.3488 7.19345 25.0651 6.47714 25.0651 5.59672C25.0651 4.71631 24.3488 4 23.4684 4C22.588 4 21.8717 4.71631 21.8717 5.59672C21.8717 5.76249 21.9043 5.91926 21.9514 6.06964L20.0944 7.46206C19.841 7.29283 19.5373 7.19345 19.2105 7.19345C18.3301 7.19345 17.6138 7.90976 17.6138 8.79017C17.6138 9.03592 17.6742 9.266 17.7739 9.47418L15.6366 11.6115C15.4284 11.5118 15.1983 11.4514 14.9526 11.4514C14.5232 11.4514 14.1345 11.6237 13.8473 11.9003L12.2718 11.1126C12.2797 11.0485 12.2913 10.9854 12.2913 10.9191C12.2913 10.0387 11.575 9.32241 10.6946 9.32241C9.81421 9.32241 9.0979 10.0387 9.0979 10.9191C9.0979 11.7996 9.81421 12.5159 10.6946 12.5159Z" fill="white"/>
<path d="M25.6349 21.1025H25.0672V9.85451C25.0672 9.56039 24.8291 9.32227 24.535 9.32227H22.406C22.1119 9.32227 21.8738 9.56039 21.8738 9.85451V21.1025H20.8093V13.048C20.8093 12.7538 20.5712 12.5157 20.277 12.5157H18.1481C17.8539 12.5157 17.6158 12.7538 17.6158 13.048V21.1025H16.5513V17.3059C16.5513 17.0118 16.3132 16.7736 16.0191 16.7736H13.8901C13.596 16.7736 13.3579 17.0118 13.3579 17.3059V21.1025H12.2934V15.1769C12.2934 14.8828 12.0553 14.6447 11.7612 14.6447H9.63221C9.33809 14.6447 9.09997 14.8828 9.09997 15.1769V21.1025H8.53224C8.23812 21.1025 8 21.3407 8 21.6348C8 21.9289 8.23812 22.167 8.53224 22.167H25.6349C25.929 22.167 26.1672 21.9289 26.1672 21.6348C26.1672 21.3407 25.929 21.1025 25.6349 21.1025Z" fill="white"/>
</svg>
